<?xml version="1.0" encoding="utf-8"?>
<!-- Generator: Adobe Illustrator 24.0.0, SVG Export Plug-In . SVG Version: 6.00 Build 0)  -->
<svg version="1.1" baseProfile="tiny" id="Layer_1" xmlns="http://www.w3.org/2000/svg" xmlns:xlink="http://www.w3.org/1999/xlink"
	 x="0px" y="0px" width="288px" height="198px" viewBox="0 0 288 198" xml:space="preserve">
<path fill="none" stroke="#6262A0" stroke-width="3.0651" stroke-miterlimit="50" d="M161.7,159.6l73.7-126.3H88.1
	c9.8,16.8,18.5,31.8,28.3,48.6c1.1,2,4.3,0,6.4,0.7c2.4,0.8,2.1,14,4.2,17.5C138.6,120,150.1,139.8,161.7,159.6z"/>
<g>
	<path fill="#6262A0" d="M73.1,108.3c-0.3-0.7-0.4-1.8-0.5-2.8c-1,1-2.3,1.8-3.9,2.5c-1.6,0.6-3.5,0.9-5.6,0.9c-3.6,0-6.3-0.7-8-2.2
		s-2.5-3.4-2.5-5.8c0-2.1,0.4-3.8,1.1-5s1.7-2.2,3-2.9c1.3-0.7,2.8-1.2,4.6-1.6c1.8-0.3,3.7-0.6,5.8-0.9c2.1-0.3,3.5-0.6,4.2-1.1
		s1.1-1.2,1.1-2.2c0-0.9-0.5-1.7-1.4-2.2c-1-0.5-2.3-0.8-3.9-0.8c-1.9,0-3.3,0.4-4.1,1.2c-0.8,0.8-1.4,1.8-1.6,3.1h-7.7
		c0-1.5,0.3-2.9,0.8-4.1c0.5-1.3,1.3-2.3,2.4-3.3c1.1-0.9,2.5-1.6,4.3-2.1c1.7-0.5,3.9-0.7,6.4-0.7s4.6,0.3,6.3,0.8
		c1.7,0.5,3.1,1.3,4.2,2.2c1,1,1.8,2.2,2.3,3.6s0.7,3.1,0.7,4.9v18.6h-8V108.3z M72.5,93.8c-0.4,0.4-1,0.7-1.9,0.9
		c-0.8,0.2-2,0.5-3.5,0.8c-2.4,0.4-4,1-4.9,1.7s-1.3,1.6-1.3,2.9c0,2.2,1.3,3.3,4,3.3c1.1,0,2.1-0.2,3-0.5s1.7-0.8,2.4-1.4
		c0.7-0.6,1.2-1.2,1.6-2s0.6-1.6,0.6-2.5L72.5,93.8z"/>
	<path fill="#6262A0" d="M131.8,108.3h-9.3V92c0-2.3-0.1-3.8-0.2-4.5c-0.1-0.7-0.5-1.3-1.1-1.7c-0.6-0.5-1.5-0.7-2.5-0.7
		s-2.1,0.3-3.1,1c-1.1,0.7-1.6,2.6-1.6,5.9v16.3h-9.3V91.9c0-2.3-0.1-3.9-0.3-4.6s-0.7-1.2-1.3-1.7c-0.6-0.4-1.4-0.6-2.4-0.6
		c-1.6,0-2.8,0.5-3.6,1.4s-1.2,2.8-1.2,5.5v16.3h-9V78.9h8.8v4.5c1.5-3.4,4.4-5.1,8.9-5.1c4,0,6.9,1.7,8.7,5.1
		c1.8-3.4,4.8-5.1,9.2-5.1c2.1,0,3.9,0.4,5.4,1.2c1.5,0.8,2.6,1.8,3.2,3.1c0.6,1.3,1,3.5,1,6.6v19.1H131.8z"/>
	<path fill="#6262A0" d="M168.1,64.6v43.7h-9.3v-2.5c-2.4,2-5.1,2.9-8.2,2.9c-3.9,0-7.2-1.5-9.9-4.4c-2.6-2.9-4-6.6-4-11
		c0-4.5,1.3-8.2,4-11c2.7-2.9,6.1-4.3,10.3-4.3c2.6,0,5.2,0.6,7.7,1.9V64.6L168.1,64.6L168.1,64.6z M158.8,100.1V86
		c-1.7-1.1-3.4-1.7-5.2-1.7c-2.3,0-4.2,0.8-5.5,2.4s-2,3.9-2,6.8c0,2.7,0.6,4.9,1.9,6.5c1.3,1.6,3,2.5,5.2,2.5
		C155.2,102.6,157.1,101.8,158.8,100.1z"/>
	<path fill="#6262A0" d="M196.9,78.8V85h-10.8v12.2c0,1.5,0.4,2.6,1.2,3.5c0.8,0.8,1.9,1.3,3.3,1.3c1.9,0,4-0.6,6.2-1.7l-4.2,8.1
		c-0.8,0.2-1.7,0.5-4.4,0.5c-3.6,0-6.4-0.9-8.4-2.8s-3-4.6-3-8.3V85.1h-4.2v-1.8l12.3-13.8h1.2v9.3h10.8V78.8z"/>
</g>
</svg>
