<?xml version="1.0" standalone="no"?>
<!DOCTYPE svg PUBLIC "-//W3C//DTD SVG 20010904//EN"
 "http://www.w3.org/TR/2001/REC-SVG-20010904/DTD/svg10.dtd">
<svg version="1.0" xmlns="http://www.w3.org/2000/svg"
 width="1152.000000pt" height="1152.000000pt" viewBox="0 0 1152.000000 1152.000000"
 preserveAspectRatio="xMidYMid meet">
<metadata>
Created by potrace 1.11, written by Peter Selinger 2001-2013
</metadata>
<g transform="translate(0.000000,1152.000000) scale(0.100000,-0.100000)"
fill="#000000" stroke="none">
<path d="M3420 8446 c0 -2 21 -40 46 -83 26 -43 55 -91 64 -108 9 -16 129
-221 265 -455 136 -234 256 -440 267 -458 10 -18 25 -43 32 -55 31 -49 67
-113 73 -129 3 -10 9 -18 14 -18 5 0 9 -4 9 -9 0 -5 19 -42 43 -83 24 -40 55
-93 69 -118 14 -25 64 -110 110 -190 47 -80 95 -162 107 -182 11 -21 29 -53
40 -71 18 -32 18 -33 -5 -66 l-22 -33 -18 29 c-45 72 -148 145 -229 162 -64
13 -209 5 -260 -14 -81 -30 -159 -95 -179 -149 -11 -32 -17 -12 -19 70 l-2 79
-175 0 -175 0 0 -583 c0 -511 2 -583 15 -587 8 -2 89 -3 180 -3 l166 1 1 356
c1 464 5 489 80 541 30 21 49 25 103 25 79 0 112 -15 143 -64 22 -36 22 -41
23 -444 1 -224 4 -410 7 -413 6 -7 358 -6 364 0 3 2 4 85 3 183 -1 211 -1 194
2 265 2 31 0 54 -4 51 -5 -2 -4 7 1 20 6 14 7 27 5 30 -5 5 -8 66 -5 77 1 3 4
39 5 80 6 147 62 212 186 213 61 1 108 -23 133 -66 9 -16 13 -128 15 -437 2
-228 5 -416 7 -418 2 -3 70 -5 150 -6 l146 -1 106 -180 c149 -255 162 -277
176 -305 6 -14 14 -27 18 -30 4 -3 19 -29 35 -58 16 -29 38 -68 49 -87 112
-192 242 -414 252 -430 7 -11 18 -31 25 -45 7 -14 15 -27 18 -30 5 -4 80 -132
155 -265 13 -22 66 -114 119 -204 53 -90 96 -167 96 -172 0 -5 4 -9 9 -9 5 0
11 -8 14 -17 3 -10 13 -29 21 -43 57 -92 153 -258 160 -275 l8 -20 14 20 c28
38 94 145 89 145 -2 0 7 16 20 36 13 19 27 44 30 55 4 10 10 19 14 19 4 0 13
16 21 35 8 19 17 35 21 35 4 0 9 8 12 18 3 9 20 40 36 67 17 28 40 68 53 90
12 22 27 48 33 57 5 10 59 102 120 205 60 104 114 196 120 205 5 9 17 29 26
45 28 49 83 143 171 293 47 80 95 163 107 185 12 22 36 63 53 90 17 28 76 129
131 225 56 96 105 177 109 178 4 2 8 8 8 12 0 9 54 107 88 160 9 14 16 28 15
32 -2 3 4 12 12 18 8 7 15 19 15 26 0 8 5 14 10 14 6 0 10 6 10 14 0 7 7 19
15 26 8 7 13 16 10 20 -3 5 -1 10 3 12 4 1 19 23 33 48 14 25 50 86 79 135 58
98 71 122 119 207 18 32 37 61 42 64 5 3 7 10 4 15 -4 5 -1 9 4 9 6 0 11 4 11
9 0 5 18 39 40 75 22 36 40 70 40 75 0 5 3 11 8 13 4 2 18 23 31 48 14 25 27
47 30 50 3 3 14 21 24 40 31 59 52 95 57 100 7 7 29 43 37 60 3 8 25 47 48 85
23 39 60 102 82 140 22 39 86 148 141 243 56 95 102 177 102 183 0 5 5 9 10 9
6 0 10 4 10 10 0 5 21 44 46 87 38 64 142 240 234 398 52 89 89 154 106 185
10 19 22 37 26 40 4 3 12 17 17 30 6 14 33 61 61 105 27 44 49 86 50 93 0 6 4
12 9 12 5 0 11 8 15 18 3 9 10 24 16 32 14 21 129 219 146 253 l15 27 -3051 0
c-1677 0 -3050 -2 -3050 -4z m5862 -165 c-14 -26 -34 -58 -44 -73 -10 -14 -18
-31 -18 -37 0 -6 -4 -11 -10 -11 -5 0 -10 -5 -10 -10 0 -6 -101 -183 -225
-394 -218 -373 -253 -434 -282 -486 -8 -14 -22 -38 -32 -55 -18 -29 -104 -176
-141 -240 -9 -16 -31 -54 -49 -83 -17 -29 -31 -57 -31 -62 0 -6 -4 -10 -10
-10 -5 0 -10 -4 -10 -8 0 -5 -52 -98 -116 -208 -64 -109 -124 -212 -134 -229
-9 -16 -72 -124 -139 -238 -66 -114 -121 -210 -121 -213 0 -3 -5 -10 -10 -17
-6 -7 -40 -63 -76 -125 -37 -62 -75 -117 -87 -124 -34 -18 -157 -19 -192 -1
-93 47 -97 65 -99 386 -1 148 2 271 6 273 5 3 32 5 61 5 57 -1 80 -1 100 -1 6
1 33 -1 60 -2 26 -2 47 -1 47 2 0 7 86 3 99 -4 5 -4 12 -2 15 3 3 5 14 7 25 4
17 -4 18 3 17 119 l-1 123 -200 2 c-110 1 -207 2 -215 3 -14 0 -16 25 -15 185
0 118 -3 185 -10 186 -25 3 -42 -5 -65 -30 -153 -170 -208 -231 -244 -273 -16
-18 -61 -69 -100 -112 -39 -43 -82 -92 -96 -107 -27 -30 -36 -74 -20 -94 6 -7
38 -11 85 -10 l75 2 1 -266 c1 -146 1 -270 0 -274 -5 -30 25 -152 51 -202 69
-138 192 -204 391 -209 31 -1 57 -6 56 -11 -1 -12 -70 -138 -79 -145 -4 -3
-13 -18 -22 -35 -8 -16 -55 -97 -103 -180 -49 -82 -93 -160 -99 -172 -6 -13
-14 -23 -18 -23 -5 0 -8 -5 -8 -11 0 -13 -141 -253 -152 -257 -4 -2 -8 -10 -8
-18 0 -8 -8 -27 -19 -42 -23 -34 -200 -337 -220 -377 -8 -16 -17 -32 -21 -35
-4 -3 -13 -17 -21 -33 -8 -15 -61 -107 -118 -205 -57 -97 -128 -219 -159 -270
-53 -91 -55 -93 -68 -70 -8 12 -17 31 -20 41 -3 9 -9 17 -13 17 -4 0 -13 16
-21 35 -8 19 -17 35 -22 35 -4 0 -8 5 -8 10 0 6 -22 47 -50 91 -27 44 -50 83
-50 85 0 3 -27 50 -60 105 -33 55 -60 104 -60 109 0 6 -3 10 -7 10 -5 0 -13
10 -19 23 -25 51 -79 143 -91 155 -7 7 -13 17 -13 22 0 4 -34 65 -75 134 -41
69 -75 130 -75 136 0 5 -4 10 -9 10 -5 0 -11 8 -14 18 -6 17 -32 63 -88 155
-16 26 -29 51 -29 56 0 5 -4 11 -8 13 -4 2 -23 30 -41 63 -56 99 -63 111 -205
352 -75 128 -136 235 -136 238 0 3 -12 24 -27 47 l-28 42 -2 380 c-1 398 -3
432 -23 506 -24 88 -99 159 -205 195 -97 33 -268 24 -366 -19 -16 -7 -67 70
-185 284 -11 19 -27 46 -35 60 -9 14 -83 140 -164 280 -81 140 -154 263 -163
273 -8 9 -11 17 -7 17 4 0 1 8 -7 18 -8 9 -41 63 -73 120 -31 56 -61 105 -66
108 -5 3 -7 9 -4 13 2 5 -4 16 -15 26 -11 10 -20 22 -20 27 0 5 -31 63 -70
128 -38 65 -70 123 -70 129 0 6 -3 11 -8 11 -4 0 -18 21 -32 48 -13 26 -27 49
-30 52 -5 5 -13 18 -52 89 -11 20 -28 50 -39 67 l-18 30 2839 0 2839 0 -27
-45z"/>
<path d="M6349 7111 c-1 -14 -1 -151 -1 -303 0 -153 -2 -278 -4 -278 -3 0 -35
13 -79 31 -40 17 -161 41 -200 41 -214 -3 -361 -72 -482 -227 -31 -40 -79
-137 -88 -179 -2 -11 -9 -39 -14 -61 -11 -42 -9 -261 2 -305 15 -58 60 -170
73 -181 8 -6 14 -18 14 -26 0 -8 33 -47 74 -88 53 -53 93 -83 149 -109 84 -41
106 -46 225 -51 84 -3 189 19 237 51 12 8 24 12 27 9 2 -3 15 6 28 20 33 35
40 32 40 -20 0 -42 2 -45 28 -46 103 -2 334 1 340 5 4 2 7 395 7 873 l-1 868
-187 1 -187 0 -1 -25z m-89 -786 c24 -8 55 -22 67 -31 l23 -14 0 -284 0 -284
-32 -24 c-69 -52 -99 -63 -183 -63 -88 0 -128 14 -181 63 -38 34 -81 101 -88
134 -3 13 -9 43 -14 68 -12 65 -6 188 13 246 35 105 111 182 201 202 54 13
140 7 194 -13z"/>
<path d="M2567 6583 c-3 -2 -20 -5 -38 -7 -91 -9 -204 -56 -262 -109 -39 -36
-85 -104 -91 -133 -2 -10 -8 -30 -13 -44 -5 -14 -11 -44 -12 -67 l-2 -43 156
0 c135 0 155 2 155 16 0 50 72 128 132 145 85 23 278 -9 278 -46 0 -7 5 -15
10 -17 6 -2 12 -21 12 -44 3 -65 -40 -105 -127 -120 -14 -2 -51 -8 -83 -13
-31 -6 -75 -13 -97 -16 -23 -3 -50 -7 -62 -9 -11 -3 -38 -7 -59 -10 -60 -10
-165 -47 -208 -74 -45 -28 -106 -91 -106 -109 0 -7 -4 -13 -8 -13 -23 0 -45
-201 -30 -270 9 -38 52 -110 82 -138 39 -35 100 -68 142 -77 16 -3 43 -9 59
-12 17 -4 77 -6 135 -6 131 0 221 25 312 86 l64 43 2 -31 c4 -47 7 -64 16 -72
10 -11 298 -13 311 -2 7 5 10 145 8 406 -3 460 -1 414 -15 478 -12 54 -38 112
-71 157 -44 60 -166 122 -282 144 -43 8 -302 14 -308 7z m323 -802 c-21 -84
-108 -162 -206 -184 -49 -11 -134 -15 -154 -7 -3 1 -8 2 -11 2 -3 -1 -20 11
-38 26 -38 32 -51 79 -39 137 17 77 75 110 266 151 64 14 122 27 127 29 6 2
20 6 33 10 12 4 23 12 24 19 1 6 4 -23 6 -64 1 -41 -2 -95 -8 -119z"/>
</g>
</svg>
