<?xml version="1.0" standalone="no"?>
<!DOCTYPE svg PUBLIC "-//W3C//DTD SVG 20010904//EN"
 "http://www.w3.org/TR/2001/REC-SVG-20010904/DTD/svg10.dtd">
<svg version="1.0" xmlns="http://www.w3.org/2000/svg"
 width="186.000000pt" height="186.000000pt" viewBox="0 0 186.000000 186.000000"
 preserveAspectRatio="xMidYMid meet">
<metadata>
Created by potrace 1.11, written by Peter Selinger 2001-2013
</metadata>
<g transform="translate(0.000000,186.000000) scale(0.100000,-0.100000)"
fill="#000000" stroke="none">
<path d="M363 1582 c-13 -2 -23 -5 -23 -7 0 -2 52 -92 115 -201 63 -108 115
-198 115 -201 0 -2 11 -21 25 -41 34 -49 33 -73 -1 -41 -32 30 -102 33 -132 6
-17 -16 -20 -16 -25 -2 -4 10 -20 15 -47 15 l-40 0 0 -144 c0 -97 4 -146 11
-148 6 -2 26 -2 45 0 l34 4 0 98 c0 104 10 130 50 130 30 0 37 -28 36 -133 0
-53 2 -97 7 -98 4 -1 24 -2 45 -2 l37 -1 3 99 c3 99 15 135 46 135 34 -1 40
-19 41 -120 0 -108 6 -119 51 -114 21 2 39 -24 180 -267 86 -148 160 -267 164
-264 4 2 168 281 366 620 197 338 367 628 376 643 9 15 17 29 17 32 1 5 -1459
7 -1496 2z m1437 -38 c0 -3 -23 -44 -51 -92 -29 -48 -60 -100 -69 -117 -261
-453 -263 -455 -291 -455 -35 0 -49 28 -49 101 l0 69 55 0 c54 0 55 0 55 30 0
32 -3 33 -73 30 -37 -2 -39 0 -37 27 3 46 1 63 -10 63 -5 0 -37 -33 -72 -72
-61 -71 -61 -73 -36 -76 26 -3 26 -4 26 -87 0 -59 5 -90 16 -107 18 -27 56
-48 86 -48 11 0 20 -2 20 -4 0 -5 -246 -428 -262 -449 -12 -17 -28 7 -160 234
l-147 252 0 97 c0 54 -3 109 -6 123 -9 34 -61 58 -111 51 l-39 -5 -100 172
c-55 95 -112 194 -128 221 l-27 48 705 0 c388 0 705 -3 705 -6z"/>
<path d="M1069 1241 c0 -9 -1 -43 -2 -77 l0 -60 -37 9 c-72 20 -144 -15 -171
-81 -27 -68 0 -161 57 -199 32 -20 115 -23 138 -4 11 9 15 9 18 0 2 -6 22 -12
43 -12 l40 -1 3 217 c1 119 -1 217 -5 218 -77 7 -83 6 -84 -10z m-24 -191 c25
-9 26 -13 24 -80 -2 -76 -12 -92 -56 -92 -33 0 -73 43 -73 78 0 43 26 92 52
97 12 2 24 5 25 6 1 0 13 -3 28 -9z"/>
<path d="M74 1102 c-36 -19 -53 -41 -54 -69 0 -18 5 -21 33 -20 18 2 42 12 55
25 23 23 33 25 70 16 13 -4 22 -14 22 -25 0 -22 -3 -23 -83 -39 -76 -15 -109
-43 -109 -94 0 -59 28 -81 101 -81 36 1 65 6 76 15 15 12 18 12 25 -1 5 -9 22
-15 42 -14 l33 1 3 112 c3 119 -3 142 -43 168 -34 22 -133 26 -171 6z m131
-174 c-8 -38 -36 -59 -74 -56 -31 3 -36 7 -36 28 0 21 8 28 50 42 57 18 65 16
60 -14z"/>
</g>
</svg>
